<?xml version="1.0" encoding="UTF-8" standalone="no"?>
<!-- Created with Inkscape (http://www.inkscape.org/) -->

<svg
   width="3.9347146in"
   height="1.5592866in"
   viewBox="0 0 99.941743 39.605879"
   version="1.1"
   id="svg13829"
   xml:space="preserve"
   inkscape:version="1.2.1 (9c6d41e4, 2022-07-14)"
   sodipodi:docname="supp_fig6.svg"
   xmlns:inkscape="http://www.inkscape.org/namespaces/inkscape"
   xmlns:sodipodi="http://sodipodi.sourceforge.net/DTD/sodipodi-0.dtd"
   xmlns="http://www.w3.org/2000/svg"
   xmlns:svg="http://www.w3.org/2000/svg"><sodipodi:namedview
     id="namedview13831"
     pagecolor="#ffffff"
     bordercolor="#000000"
     borderopacity="0.25"
     inkscape:showpageshadow="2"
     inkscape:pageopacity="0.0"
     inkscape:pagecheckerboard="0"
     inkscape:deskcolor="#d1d1d1"
     inkscape:document-units="mm"
     showgrid="false"
     inkscape:zoom="1.9060322"
     inkscape:cx="150.83691"
     inkscape:cy="97.06027"
     inkscape:window-width="1440"
     inkscape:window-height="790"
     inkscape:window-x="1897"
     inkscape:window-y="25"
     inkscape:window-maximized="0"
     inkscape:current-layer="svg13829"><inkscape:page
       x="0"
       y="0"
       width="99.941742"
       height="39.605881"
       id="page14075" /><inkscape:page
       x="220.10797"
       y="-0.11375413"
       width="45.508301"
       height="45.508331"
       id="page14077" /><inkscape:page
       x="275.61627"
       y="-0.11375413"
       width="45.508331"
       height="45.508331"
       id="page14366" /><inkscape:page
       x="331.1246"
       y="-0.11375413"
       width="45.508331"
       height="45.508331"
       id="page14911" /><inkscape:page
       x="386.63293"
       y="-0.11375413"
       width="45.508331"
       height="45.508331"
       id="page15200" /><inkscape:page
       x="442.14127"
       y="-0.11375413"
       width="45.508331"
       height="45.508331"
       id="page15569" /><inkscape:page
       x="497.6496"
       y="-0.11375413"
       width="45.508301"
       height="45.508331"
       id="page15910" /><inkscape:page
       x="553.1579"
       y="-0.11375413"
       width="45.508301"
       height="45.508331"
       id="page16218" /><inkscape:page
       x="608.6662"
       y="-0.11375413"
       width="45.508301"
       height="45.508331"
       id="page16526" /><inkscape:page
       x="664.1745"
       y="-2.2305174e-07"
       width="45.508362"
       height="45.508331"
       id="page716" /><inkscape:page
       x="719.68286"
       y="-2.2305174e-07"
       width="45.508301"
       height="45.508331"
       id="page1015" /><inkscape:page
       x="775.19116"
       y="-2.2305174e-07"
       width="45.508301"
       height="45.508331"
       id="page1304" /><inkscape:page
       x="830.69946"
       y="-1.1152588e-07"
       width="101.59998"
       height="45.508331"
       id="page941" /></sodipodi:namedview><defs
     id="defs13826"><clipPath
       clipPathUnits="userSpaceOnUse"
       id="clipPath13875"><path
         d="M 0,0 H 129.6 V 129.6 H 0 Z"
         id="path13873" /></clipPath><clipPath
       clipPathUnits="userSpaceOnUse"
       id="clipPath13887"><path
         d="m 29.97,37 h 93.65 v 71.27 H 29.97 Z"
         id="path13885" /></clipPath><clipPath
       clipPathUnits="userSpaceOnUse"
       id="clipPath14170"><path
         d="M 0,0 H 129.6 V 129.6 H 0 Z"
         id="path14168" /></clipPath><clipPath
       clipPathUnits="userSpaceOnUse"
       id="clipPath14182"><path
         d="m 29.97,28.36 h 93.65 v 79.91 H 29.97 Z"
         id="path14180" /></clipPath><clipPath
       clipPathUnits="userSpaceOnUse"
       id="clipPath14719"><path
         d="M 0,0 H 129.6 V 129.6 H 0 Z"
         id="path14717" /></clipPath><clipPath
       clipPathUnits="userSpaceOnUse"
       id="clipPath14731"><path
         d="m 29.97,37 h 93.65 v 71.27 H 29.97 Z"
         id="path14729" /></clipPath><clipPath
       clipPathUnits="userSpaceOnUse"
       id="clipPath15000"><path
         d="M 0,0 H 129.6 V 129.6 H 0 Z"
         id="path14998" /></clipPath><clipPath
       clipPathUnits="userSpaceOnUse"
       id="clipPath15012"><path
         d="m 29.97,37 h 93.65 v 71.27 H 29.97 Z"
         id="path15010" /></clipPath><clipPath
       clipPathUnits="userSpaceOnUse"
       id="clipPath15357"><path
         d="M 0,0 H 129.6 V 129.6 H 0 Z"
         id="path15355" /></clipPath><clipPath
       clipPathUnits="userSpaceOnUse"
       id="clipPath15369"><path
         d="m 36.65,37 h 86.98 v 71.27 H 36.65 Z"
         id="path15367" /></clipPath><clipPath
       clipPathUnits="userSpaceOnUse"
       id="clipPath15700"><path
         d="M 0,0 H 129.6 V 129.6 H 0 Z"
         id="path15698" /></clipPath><clipPath
       clipPathUnits="userSpaceOnUse"
       id="clipPath15712"><path
         d="m 36.65,37 h 86.98 v 71.27 H 36.65 Z"
         id="path15710" /></clipPath><clipPath
       clipPathUnits="userSpaceOnUse"
       id="clipPath16008"><path
         d="M 0,0 H 129.6 V 129.6 H 0 Z"
         id="path16006" /></clipPath><clipPath
       clipPathUnits="userSpaceOnUse"
       id="clipPath16020"><path
         d="m 36.65,37 h 86.98 v 71.27 H 36.65 Z"
         id="path16018" /></clipPath><clipPath
       clipPathUnits="userSpaceOnUse"
       id="clipPath16316"><path
         d="M 0,0 H 129.6 V 129.6 H 0 Z"
         id="path16314" /></clipPath><clipPath
       clipPathUnits="userSpaceOnUse"
       id="clipPath16328"><path
         d="m 36.65,37 h 86.98 v 71.27 H 36.65 Z"
         id="path16326" /></clipPath><clipPath
       clipPathUnits="userSpaceOnUse"
       id="clipPath504"><path
         d="M 0,0 H 129.6 V 129.6 H 0 Z"
         id="path502" /></clipPath><clipPath
       clipPathUnits="userSpaceOnUse"
       id="clipPath516"><path
         d="m 36.65,37 h 86.98 v 71.27 H 36.65 Z"
         id="path514" /></clipPath><clipPath
       clipPathUnits="userSpaceOnUse"
       id="clipPath815"><path
         d="M 0,0 H 129.6 V 129.6 H 0 Z"
         id="path813" /></clipPath><clipPath
       clipPathUnits="userSpaceOnUse"
       id="clipPath827"><path
         d="m 29.97,37 h 93.65 v 71.27 H 29.97 Z"
         id="path825" /></clipPath><clipPath
       clipPathUnits="userSpaceOnUse"
       id="clipPath1108"><path
         d="M 0,0 H 129.6 V 129.6 H 0 Z"
         id="path1106" /></clipPath><clipPath
       clipPathUnits="userSpaceOnUse"
       id="clipPath1120"><path
         d="m 29.97,28.36 h 93.65 v 79.91 H 29.97 Z"
         id="path1118" /></clipPath><clipPath
       clipPathUnits="userSpaceOnUse"
       id="clipPath569"><path
         d="M 0,0 H 288 V 129.6 H 0 Z"
         id="path567" /></clipPath><clipPath
       clipPathUnits="userSpaceOnUse"
       id="clipPath581"><path
         d="m 38.61,51.45 h 243.41 v 72.17 H 38.61 Z"
         id="path579" /></clipPath></defs><g
     inkscape:label="Layer 1"
     inkscape:groupmode="layer"
     id="layer1"
     transform="translate(0.10797759,-0.11375414)" /><text
     xml:space="preserve"
     style="font-variant:normal;font-weight:normal;font-size:3.52778px;font-family:Helvetica;-inkscape-font-specification:Helvetica;writing-mode:lr-tb;fill:#000000;fill-opacity:1;fill-rule:nonzero;stroke:none;stroke-width:0.352778"
     id="text15180-4"
     x="-0.071657933"
     y="2.0312269"><tspan
       sodipodi:role="line"
       id="tspan15178-0"
       x="-0.071657933"
       y="2.0312269"
       style="font-style:normal;font-variant:normal;font-weight:bold;font-stretch:normal;font-size:2.82222px;font-family:Helvetica;-inkscape-font-specification:'Helvetica, Bold';font-variant-ligatures:normal;font-variant-caps:normal;font-variant-numeric:normal;font-variant-east-asian:normal;stroke-width:0.352778">A</tspan></text><g
     id="g575"
     transform="matrix(0.35277776,0,0,-0.35277776,0.45136527,45.533574)"><g
       id="g577"
       clip-path="url(#clipPath581)"><path
         d="m 38.61,51.45 h 243.41 v 72.17 H 38.61 Z"
         style="fill:#ffffff;fill-opacity:1;fill-rule:nonzero;stroke:none"
         id="path583" /><path
         d="m 64.94,67.05 c 0,0.61 0.49,1.1 1.1,1.1 0.61,0 1.1,-0.49 1.1,-1.1 0,-0.61 -0.49,-1.1 -1.1,-1.1 -0.61,0 -1.1,0.49 -1.1,1.1"
         style="fill:#000000;fill-opacity:1;fill-rule:nonzero;stroke:#000000;stroke-width:0.71;stroke-linecap:round;stroke-linejoin:round;stroke-miterlimit:10;stroke-dasharray:none;stroke-opacity:1"
         id="path585" /><path
         d="m 184.93,76.81 c 0,0.6 0.49,1.1 1.1,1.1 0.61,0 1.1,-0.5 1.1,-1.1 0,-0.61 -0.49,-1.1 -1.1,-1.1 -0.61,0 -1.1,0.49 -1.1,1.1"
         style="fill:#000000;fill-opacity:1;fill-rule:nonzero;stroke:#000000;stroke-width:0.71;stroke-linecap:round;stroke-linejoin:round;stroke-miterlimit:10;stroke-dasharray:none;stroke-opacity:1"
         id="path587" /><path
         d="m 219.21,94.26 c 0,0.6 0.5,1.1 1.1,1.1 0.61,0 1.1,-0.5 1.1,-1.1 0,-0.61 -0.49,-1.1 -1.1,-1.1 -0.6,0 -1.1,0.49 -1.1,1.1"
         style="fill:#000000;fill-opacity:1;fill-rule:nonzero;stroke:#000000;stroke-width:0.71;stroke-linecap:round;stroke-linejoin:round;stroke-miterlimit:10;stroke-dasharray:none;stroke-opacity:1"
         id="path589" /><path
         d="m 150.65,91.03 c 0,0.6 0.49,1.1 1.1,1.1 0.6,0 1.1,-0.5 1.1,-1.1 0,-0.61 -0.5,-1.1 -1.1,-1.1 -0.61,0 -1.1,0.49 -1.1,1.1"
         style="fill:#000000;fill-opacity:1;fill-rule:nonzero;stroke:#000000;stroke-width:0.71;stroke-linecap:round;stroke-linejoin:round;stroke-miterlimit:10;stroke-dasharray:none;stroke-opacity:1"
         id="path591" /><path
         d="m 47.8,82.79 c 0,0.6 0.49,1.1 1.1,1.1 0.6,0 1.1,-0.5 1.1,-1.1 0,-0.61 -0.5,-1.1 -1.1,-1.1 -0.61,0 -1.1,0.49 -1.1,1.1"
         style="fill:#000000;fill-opacity:1;fill-rule:nonzero;stroke:#000000;stroke-width:0.71;stroke-linecap:round;stroke-linejoin:round;stroke-miterlimit:10;stroke-dasharray:none;stroke-opacity:1"
         id="path593" /><path
         d="m 236.35,80.22 c 0,0.61 0.5,1.1 1.1,1.1 0.61,0 1.11,-0.49 1.11,-1.1 0,-0.61 -0.5,-1.1 -1.11,-1.1 -0.6,0 -1.1,0.49 -1.1,1.1"
         style="fill:#000000;fill-opacity:1;fill-rule:nonzero;stroke:#000000;stroke-width:0.71;stroke-linecap:round;stroke-linejoin:round;stroke-miterlimit:10;stroke-dasharray:none;stroke-opacity:1"
         id="path595" /><path
         d="m 133.5,86.16 c 0,0.6 0.5,1.1 1.11,1.1 0.6,0 1.1,-0.5 1.1,-1.1 0,-0.61 -0.5,-1.1 -1.1,-1.1 -0.61,0 -1.11,0.49 -1.11,1.1"
         style="fill:#000000;fill-opacity:1;fill-rule:nonzero;stroke:#000000;stroke-width:0.71;stroke-linecap:round;stroke-linejoin:round;stroke-miterlimit:10;stroke-dasharray:none;stroke-opacity:1"
         id="path597" /><path
         d="m 116.36,84.11 c 0,0.61 0.5,1.1 1.1,1.1 0.61,0 1.11,-0.49 1.11,-1.1 0,-0.61 -0.5,-1.1 -1.11,-1.1 -0.6,0 -1.1,0.49 -1.1,1.1"
         style="fill:#000000;fill-opacity:1;fill-rule:nonzero;stroke:#000000;stroke-width:0.71;stroke-linecap:round;stroke-linejoin:round;stroke-miterlimit:10;stroke-dasharray:none;stroke-opacity:1"
         id="path599" /><path
         d="m 167.79,87.69 c 0,0.61 0.49,1.11 1.1,1.11 0.6,0 1.1,-0.5 1.1,-1.11 0,-0.6 -0.5,-1.1 -1.1,-1.1 -0.61,0 -1.1,0.5 -1.1,1.1"
         style="fill:#000000;fill-opacity:1;fill-rule:nonzero;stroke:#000000;stroke-width:0.71;stroke-linecap:round;stroke-linejoin:round;stroke-miterlimit:10;stroke-dasharray:none;stroke-opacity:1"
         id="path601" /><path
         d="m 82.08,82.63 c 0,0.61 0.5,1.1 1.1,1.1 0.61,0 1.1,-0.49 1.1,-1.1 0,-0.6 -0.49,-1.1 -1.1,-1.1 -0.6,0 -1.1,0.5 -1.1,1.1"
         style="fill:#000000;fill-opacity:1;fill-rule:nonzero;stroke:#000000;stroke-width:0.71;stroke-linecap:round;stroke-linejoin:round;stroke-miterlimit:10;stroke-dasharray:none;stroke-opacity:1"
         id="path603" /><path
         d="m 253.49,91 c 0,0.6 0.5,1.1 1.11,1.1 0.6,0 1.1,-0.5 1.1,-1.1 0,-0.61 -0.5,-1.11 -1.1,-1.11 -0.61,0 -1.11,0.5 -1.11,1.11"
         style="fill:#000000;fill-opacity:1;fill-rule:nonzero;stroke:#000000;stroke-width:0.71;stroke-linecap:round;stroke-linejoin:round;stroke-miterlimit:10;stroke-dasharray:none;stroke-opacity:1"
         id="path605" /><path
         d="m 202.07,109.08 c 0,0.6 0.5,1.1 1.1,1.1 0.61,0 1.1,-0.5 1.1,-1.1 0,-0.61 -0.49,-1.11 -1.1,-1.11 -0.6,0 -1.1,0.5 -1.1,1.11"
         style="fill:#000000;fill-opacity:1;fill-rule:nonzero;stroke:#000000;stroke-width:0.71;stroke-linecap:round;stroke-linejoin:round;stroke-miterlimit:10;stroke-dasharray:none;stroke-opacity:1"
         id="path607" /><path
         d="m 99.22,93.61 c 0,0.6 0.5,1.1 1.1,1.1 0.61,0 1.1,-0.5 1.1,-1.1 0,-0.61 -0.49,-1.1 -1.1,-1.1 -0.6,0 -1.1,0.49 -1.1,1.1"
         style="fill:#000000;fill-opacity:1;fill-rule:nonzero;stroke:#000000;stroke-width:0.71;stroke-linecap:round;stroke-linejoin:round;stroke-miterlimit:10;stroke-dasharray:none;stroke-opacity:1"
         id="path609" /><path
         d="m 63.47,68.58 h 5.14"
         style="fill:none;stroke:#000000;stroke-width:0.64;stroke-linecap:butt;stroke-linejoin:round;stroke-miterlimit:10;stroke-dasharray:none;stroke-opacity:1"
         id="path611" /><path
         d="M 66.04,68.58 V 65.52"
         style="fill:none;stroke:#000000;stroke-width:0.64;stroke-linecap:butt;stroke-linejoin:round;stroke-miterlimit:10;stroke-dasharray:none;stroke-opacity:1"
         id="path613" /><path
         d="m 63.47,65.52 h 5.14"
         style="fill:none;stroke:#000000;stroke-width:0.64;stroke-linecap:butt;stroke-linejoin:round;stroke-miterlimit:10;stroke-dasharray:none;stroke-opacity:1"
         id="path615" /><path
         d="m 183.46,78.09 h 5.14"
         style="fill:none;stroke:#000000;stroke-width:0.64;stroke-linecap:butt;stroke-linejoin:round;stroke-miterlimit:10;stroke-dasharray:none;stroke-opacity:1"
         id="path617" /><path
         d="M 186.03,78.09 V 75.52"
         style="fill:none;stroke:#000000;stroke-width:0.64;stroke-linecap:butt;stroke-linejoin:round;stroke-miterlimit:10;stroke-dasharray:none;stroke-opacity:1"
         id="path619" /><path
         d="m 183.46,75.52 h 5.14"
         style="fill:none;stroke:#000000;stroke-width:0.64;stroke-linecap:butt;stroke-linejoin:round;stroke-miterlimit:10;stroke-dasharray:none;stroke-opacity:1"
         id="path621" /><path
         d="m 217.74,95.92 h 5.14"
         style="fill:none;stroke:#000000;stroke-width:0.64;stroke-linecap:butt;stroke-linejoin:round;stroke-miterlimit:10;stroke-dasharray:none;stroke-opacity:1"
         id="path623" /><path
         d="M 220.31,95.92 V 92.6"
         style="fill:none;stroke:#000000;stroke-width:0.64;stroke-linecap:butt;stroke-linejoin:round;stroke-miterlimit:10;stroke-dasharray:none;stroke-opacity:1"
         id="path625" /><path
         d="m 217.74,92.6 h 5.14"
         style="fill:none;stroke:#000000;stroke-width:0.64;stroke-linecap:butt;stroke-linejoin:round;stroke-miterlimit:10;stroke-dasharray:none;stroke-opacity:1"
         id="path627" /><path
         d="m 149.18,92.61 h 5.14"
         style="fill:none;stroke:#000000;stroke-width:0.64;stroke-linecap:butt;stroke-linejoin:round;stroke-miterlimit:10;stroke-dasharray:none;stroke-opacity:1"
         id="path629" /><path
         d="M 151.75,92.61 V 89.45"
         style="fill:none;stroke:#000000;stroke-width:0.64;stroke-linecap:butt;stroke-linejoin:round;stroke-miterlimit:10;stroke-dasharray:none;stroke-opacity:1"
         id="path631" /><path
         d="m 149.18,89.45 h 5.14"
         style="fill:none;stroke:#000000;stroke-width:0.64;stroke-linecap:butt;stroke-linejoin:round;stroke-miterlimit:10;stroke-dasharray:none;stroke-opacity:1"
         id="path633" /><path
         d="m 46.33,84.17 h 5.14"
         style="fill:none;stroke:#000000;stroke-width:0.64;stroke-linecap:butt;stroke-linejoin:round;stroke-miterlimit:10;stroke-dasharray:none;stroke-opacity:1"
         id="path635" /><path
         d="M 48.9,84.17 V 81.4"
         style="fill:none;stroke:#000000;stroke-width:0.64;stroke-linecap:butt;stroke-linejoin:round;stroke-miterlimit:10;stroke-dasharray:none;stroke-opacity:1"
         id="path637" /><path
         d="m 46.33,81.4 h 5.14"
         style="fill:none;stroke:#000000;stroke-width:0.64;stroke-linecap:butt;stroke-linejoin:round;stroke-miterlimit:10;stroke-dasharray:none;stroke-opacity:1"
         id="path639" /><path
         d="m 234.88,81.92 h 5.15"
         style="fill:none;stroke:#000000;stroke-width:0.64;stroke-linecap:butt;stroke-linejoin:round;stroke-miterlimit:10;stroke-dasharray:none;stroke-opacity:1"
         id="path641" /><path
         d="m 237.45,81.92 v -3.4"
         style="fill:none;stroke:#000000;stroke-width:0.64;stroke-linecap:butt;stroke-linejoin:round;stroke-miterlimit:10;stroke-dasharray:none;stroke-opacity:1"
         id="path643" /><path
         d="m 234.88,78.52 h 5.15"
         style="fill:none;stroke:#000000;stroke-width:0.64;stroke-linecap:butt;stroke-linejoin:round;stroke-miterlimit:10;stroke-dasharray:none;stroke-opacity:1"
         id="path645" /><path
         d="m 132.03,87.45 h 5.15"
         style="fill:none;stroke:#000000;stroke-width:0.64;stroke-linecap:butt;stroke-linejoin:round;stroke-miterlimit:10;stroke-dasharray:none;stroke-opacity:1"
         id="path647" /><path
         d="M 134.61,87.45 V 84.86"
         style="fill:none;stroke:#000000;stroke-width:0.64;stroke-linecap:butt;stroke-linejoin:round;stroke-miterlimit:10;stroke-dasharray:none;stroke-opacity:1"
         id="path649" /><path
         d="m 132.03,84.86 h 5.15"
         style="fill:none;stroke:#000000;stroke-width:0.64;stroke-linecap:butt;stroke-linejoin:round;stroke-miterlimit:10;stroke-dasharray:none;stroke-opacity:1"
         id="path651" /><path
         d="m 114.89,87.3 h 5.15"
         style="fill:none;stroke:#000000;stroke-width:0.64;stroke-linecap:butt;stroke-linejoin:round;stroke-miterlimit:10;stroke-dasharray:none;stroke-opacity:1"
         id="path653" /><path
         d="M 117.46,87.3 V 80.92"
         style="fill:none;stroke:#000000;stroke-width:0.64;stroke-linecap:butt;stroke-linejoin:round;stroke-miterlimit:10;stroke-dasharray:none;stroke-opacity:1"
         id="path655" /><path
         d="m 114.89,80.92 h 5.15"
         style="fill:none;stroke:#000000;stroke-width:0.64;stroke-linecap:butt;stroke-linejoin:round;stroke-miterlimit:10;stroke-dasharray:none;stroke-opacity:1"
         id="path657" /><path
         d="m 166.32,90.36 h 5.14"
         style="fill:none;stroke:#000000;stroke-width:0.64;stroke-linecap:butt;stroke-linejoin:round;stroke-miterlimit:10;stroke-dasharray:none;stroke-opacity:1"
         id="path659" /><path
         d="M 168.89,90.36 V 85.03"
         style="fill:none;stroke:#000000;stroke-width:0.64;stroke-linecap:butt;stroke-linejoin:round;stroke-miterlimit:10;stroke-dasharray:none;stroke-opacity:1"
         id="path661" /><path
         d="m 166.32,85.03 h 5.14"
         style="fill:none;stroke:#000000;stroke-width:0.64;stroke-linecap:butt;stroke-linejoin:round;stroke-miterlimit:10;stroke-dasharray:none;stroke-opacity:1"
         id="path663" /><path
         d="m 80.61,84.71 h 5.14"
         style="fill:none;stroke:#000000;stroke-width:0.64;stroke-linecap:butt;stroke-linejoin:round;stroke-miterlimit:10;stroke-dasharray:none;stroke-opacity:1"
         id="path665" /><path
         d="M 83.18,84.71 V 80.55"
         style="fill:none;stroke:#000000;stroke-width:0.64;stroke-linecap:butt;stroke-linejoin:round;stroke-miterlimit:10;stroke-dasharray:none;stroke-opacity:1"
         id="path667" /><path
         d="m 80.61,80.55 h 5.14"
         style="fill:none;stroke:#000000;stroke-width:0.64;stroke-linecap:butt;stroke-linejoin:round;stroke-miterlimit:10;stroke-dasharray:none;stroke-opacity:1"
         id="path669" /><path
         d="m 252.02,92.87 h 5.15"
         style="fill:none;stroke:#000000;stroke-width:0.64;stroke-linecap:butt;stroke-linejoin:round;stroke-miterlimit:10;stroke-dasharray:none;stroke-opacity:1"
         id="path671" /><path
         d="M 254.6,92.87 V 89.12"
         style="fill:none;stroke:#000000;stroke-width:0.64;stroke-linecap:butt;stroke-linejoin:round;stroke-miterlimit:10;stroke-dasharray:none;stroke-opacity:1"
         id="path673" /><path
         d="m 252.02,89.12 h 5.15"
         style="fill:none;stroke:#000000;stroke-width:0.64;stroke-linecap:butt;stroke-linejoin:round;stroke-miterlimit:10;stroke-dasharray:none;stroke-opacity:1"
         id="path675" /><path
         d="m 200.6,111.49 h 5.14"
         style="fill:none;stroke:#000000;stroke-width:0.64;stroke-linecap:butt;stroke-linejoin:round;stroke-miterlimit:10;stroke-dasharray:none;stroke-opacity:1"
         id="path677" /><path
         d="m 203.17,111.49 v -4.83"
         style="fill:none;stroke:#000000;stroke-width:0.64;stroke-linecap:butt;stroke-linejoin:round;stroke-miterlimit:10;stroke-dasharray:none;stroke-opacity:1"
         id="path679" /><path
         d="m 200.6,106.66 h 5.14"
         style="fill:none;stroke:#000000;stroke-width:0.64;stroke-linecap:butt;stroke-linejoin:round;stroke-miterlimit:10;stroke-dasharray:none;stroke-opacity:1"
         id="path681" /><path
         d="m 97.75,98.14 h 5.14"
         style="fill:none;stroke:#000000;stroke-width:0.64;stroke-linecap:butt;stroke-linejoin:round;stroke-miterlimit:10;stroke-dasharray:none;stroke-opacity:1"
         id="path683" /><path
         d="M 100.32,98.14 V 89.08"
         style="fill:none;stroke:#000000;stroke-width:0.64;stroke-linecap:butt;stroke-linejoin:round;stroke-miterlimit:10;stroke-dasharray:none;stroke-opacity:1"
         id="path685" /><path
         d="m 97.75,89.08 h 5.14"
         style="fill:none;stroke:#000000;stroke-width:0.64;stroke-linecap:butt;stroke-linejoin:round;stroke-miterlimit:10;stroke-dasharray:none;stroke-opacity:1"
         id="path687" /><path
         d="m 271.74,107.14 v 12.68"
         style="fill:none;stroke:#333333;stroke-width:0.64;stroke-linecap:butt;stroke-linejoin:round;stroke-miterlimit:10;stroke-dasharray:none;stroke-opacity:1"
         id="path689" /><path
         d="M 271.74,98.57 V 85.78"
         style="fill:none;stroke:#333333;stroke-width:0.64;stroke-linecap:butt;stroke-linejoin:round;stroke-miterlimit:10;stroke-dasharray:none;stroke-opacity:1"
         id="path691" /><path
         d="m 265.31,107.14 v -8.57 h 12.86 v 8.57 z"
         style="fill:#ffffff;fill-opacity:1;fill-rule:nonzero;stroke:#333333;stroke-width:0.64;stroke-linecap:butt;stroke-linejoin:miter;stroke-miterlimit:10;stroke-dasharray:none;stroke-opacity:1"
         id="path693" /><path
         d="m 265.31,103.74 h 12.86"
         style="fill:none;stroke:#333333;stroke-width:1.28;stroke-linecap:butt;stroke-linejoin:miter;stroke-miterlimit:10;stroke-dasharray:none;stroke-opacity:1"
         id="path695" /><path
         d="M 38.61,103.94 H 282.02"
         style="fill:none;stroke:#bebebe;stroke-width:1.07;stroke-linecap:butt;stroke-linejoin:round;stroke-miterlimit:10;stroke-dasharray:4.27, 4.27;stroke-dashoffset:0;stroke-opacity:1"
         id="path697" /></g></g><g
     id="g723"
     transform="matrix(0.35277776,0,0,-0.35277776,0.45136527,45.533574)"><path
       d="m 38.61,51.45 v 72.17"
       style="fill:none;stroke:#000000;stroke-width:0.43;stroke-linecap:butt;stroke-linejoin:round;stroke-miterlimit:10;stroke-dasharray:none;stroke-opacity:1"
       id="path725" /></g><g
     id="g731"
     transform="matrix(0.35277776,0,0,-0.35277776,0.45136527,45.533574)"><text
       xml:space="preserve"
       transform="matrix(1,0,0,-1,24.11,51.86)"
       style="font-variant:normal;font-weight:normal;font-size:8px;font-family:Helvetica;-inkscape-font-specification:Helvetica;writing-mode:lr-tb;fill:#4d4d4d;fill-opacity:1;fill-rule:nonzero;stroke:none"
       id="text735"><tspan
         x="0 4.6719999"
         y="0"
         sodipodi:role="line"
         id="tspan733">−3</tspan></text><text
       xml:space="preserve"
       transform="matrix(1,0,0,-1,24.11,68.26)"
       style="font-variant:normal;font-weight:normal;font-size:8px;font-family:Helvetica;-inkscape-font-specification:Helvetica;writing-mode:lr-tb;fill:#4d4d4d;fill-opacity:1;fill-rule:nonzero;stroke:none"
       id="text739"><tspan
         x="0 4.6719999"
         y="0"
         sodipodi:role="line"
         id="tspan737">−2</tspan></text><text
       xml:space="preserve"
       transform="matrix(1,0,0,-1,24.11,84.67)"
       style="font-variant:normal;font-weight:normal;font-size:8px;font-family:Helvetica;-inkscape-font-specification:Helvetica;writing-mode:lr-tb;fill:#4d4d4d;fill-opacity:1;fill-rule:nonzero;stroke:none"
       id="text743"><tspan
         x="0 4.6719999"
         y="0"
         sodipodi:role="line"
         id="tspan741">−1</tspan></text><text
       xml:space="preserve"
       transform="matrix(1,0,0,-1,28.79,101.07)"
       style="font-variant:normal;font-weight:normal;font-size:8px;font-family:Helvetica;-inkscape-font-specification:Helvetica;writing-mode:lr-tb;fill:#4d4d4d;fill-opacity:1;fill-rule:nonzero;stroke:none"
       id="text747"><tspan
         x="0"
         y="0"
         id="tspan745">0</tspan></text><text
       xml:space="preserve"
       transform="matrix(1,0,0,-1,28.79,117.47)"
       style="font-variant:normal;font-weight:normal;font-size:8px;font-family:Helvetica;-inkscape-font-specification:Helvetica;writing-mode:lr-tb;fill:#4d4d4d;fill-opacity:1;fill-rule:nonzero;stroke:none"
       id="text751"><tspan
         x="0"
         y="0"
         id="tspan749">1</tspan></text></g><g
     id="g757"
     transform="matrix(0.35277776,0,0,-0.35277776,0.45136527,45.533574)"><path
       d="m 35.63,54.73 h 2.98"
       style="fill:none;stroke:#333333;stroke-width:0.43;stroke-linecap:butt;stroke-linejoin:round;stroke-miterlimit:10;stroke-dasharray:none;stroke-opacity:1"
       id="path759" /><path
       d="m 35.63,71.13 h 2.98"
       style="fill:none;stroke:#333333;stroke-width:0.43;stroke-linecap:butt;stroke-linejoin:round;stroke-miterlimit:10;stroke-dasharray:none;stroke-opacity:1"
       id="path761" /><path
       d="m 35.63,87.54 h 2.98"
       style="fill:none;stroke:#333333;stroke-width:0.43;stroke-linecap:butt;stroke-linejoin:round;stroke-miterlimit:10;stroke-dasharray:none;stroke-opacity:1"
       id="path763" /><path
       d="m 35.63,103.94 h 2.98"
       style="fill:none;stroke:#333333;stroke-width:0.43;stroke-linecap:butt;stroke-linejoin:round;stroke-miterlimit:10;stroke-dasharray:none;stroke-opacity:1"
       id="path765" /><path
       d="m 35.63,120.34 h 2.98"
       style="fill:none;stroke:#333333;stroke-width:0.43;stroke-linecap:butt;stroke-linejoin:round;stroke-miterlimit:10;stroke-dasharray:none;stroke-opacity:1"
       id="path767" /></g><g
     id="g783"
     transform="matrix(0.35277776,0,0,-0.35277776,0.45136527,45.533574)"><path
       d="M 38.61,51.45 H 282.02"
       style="fill:none;stroke:#000000;stroke-width:0.43;stroke-linecap:butt;stroke-linejoin:round;stroke-miterlimit:10;stroke-dasharray:none;stroke-opacity:1"
       id="path785" /></g><g
     id="g791"
     transform="matrix(0.35277776,0,0,-0.35277776,0.45136527,45.533574)"><path
       d="m 48.9,48.46 v 2.99"
       style="fill:none;stroke:#333333;stroke-width:0.43;stroke-linecap:butt;stroke-linejoin:round;stroke-miterlimit:10;stroke-dasharray:none;stroke-opacity:1"
       id="path793" /><path
       d="m 66.04,48.46 v 2.99"
       style="fill:none;stroke:#333333;stroke-width:0.43;stroke-linecap:butt;stroke-linejoin:round;stroke-miterlimit:10;stroke-dasharray:none;stroke-opacity:1"
       id="path795" /><path
       d="m 83.18,48.46 v 2.99"
       style="fill:none;stroke:#333333;stroke-width:0.43;stroke-linecap:butt;stroke-linejoin:round;stroke-miterlimit:10;stroke-dasharray:none;stroke-opacity:1"
       id="path797" /><path
       d="m 100.32,48.46 v 2.99"
       style="fill:none;stroke:#333333;stroke-width:0.43;stroke-linecap:butt;stroke-linejoin:round;stroke-miterlimit:10;stroke-dasharray:none;stroke-opacity:1"
       id="path799" /><path
       d="m 117.46,48.46 v 2.99"
       style="fill:none;stroke:#333333;stroke-width:0.43;stroke-linecap:butt;stroke-linejoin:round;stroke-miterlimit:10;stroke-dasharray:none;stroke-opacity:1"
       id="path801" /><path
       d="m 134.61,48.46 v 2.99"
       style="fill:none;stroke:#333333;stroke-width:0.43;stroke-linecap:butt;stroke-linejoin:round;stroke-miterlimit:10;stroke-dasharray:none;stroke-opacity:1"
       id="path803" /><path
       d="m 151.75,48.46 v 2.99"
       style="fill:none;stroke:#333333;stroke-width:0.43;stroke-linecap:butt;stroke-linejoin:round;stroke-miterlimit:10;stroke-dasharray:none;stroke-opacity:1"
       id="path805" /><path
       d="m 168.89,48.46 v 2.99"
       style="fill:none;stroke:#333333;stroke-width:0.43;stroke-linecap:butt;stroke-linejoin:round;stroke-miterlimit:10;stroke-dasharray:none;stroke-opacity:1"
       id="path807" /><path
       d="m 186.03,48.46 v 2.99"
       style="fill:none;stroke:#333333;stroke-width:0.43;stroke-linecap:butt;stroke-linejoin:round;stroke-miterlimit:10;stroke-dasharray:none;stroke-opacity:1"
       id="path809" /><path
       d="m 203.17,48.46 v 2.99"
       style="fill:none;stroke:#333333;stroke-width:0.43;stroke-linecap:butt;stroke-linejoin:round;stroke-miterlimit:10;stroke-dasharray:none;stroke-opacity:1"
       id="path811" /><path
       d="m 220.31,48.46 v 2.99"
       style="fill:none;stroke:#333333;stroke-width:0.43;stroke-linecap:butt;stroke-linejoin:round;stroke-miterlimit:10;stroke-dasharray:none;stroke-opacity:1"
       id="path813-9" /><path
       d="m 237.45,48.46 v 2.99"
       style="fill:none;stroke:#333333;stroke-width:0.43;stroke-linecap:butt;stroke-linejoin:round;stroke-miterlimit:10;stroke-dasharray:none;stroke-opacity:1"
       id="path815" /><path
       d="m 254.6,48.46 v 2.99"
       style="fill:none;stroke:#333333;stroke-width:0.43;stroke-linecap:butt;stroke-linejoin:round;stroke-miterlimit:10;stroke-dasharray:none;stroke-opacity:1"
       id="path817" /><path
       d="m 271.74,48.46 v 2.99"
       style="fill:none;stroke:#333333;stroke-width:0.43;stroke-linecap:butt;stroke-linejoin:round;stroke-miterlimit:10;stroke-dasharray:none;stroke-opacity:1"
       id="path819" /></g><g
     id="g823"
     transform="matrix(0.35277776,0,0,-0.35277776,0.45136527,45.533574)"><text
       xml:space="preserve"
       transform="matrix(0.70710678,0.70710678,0.70710678,-0.70710678,28.3,17.35)"
       style="font-variant:normal;font-weight:normal;font-size:8.00445px;font-family:Helvetica;-inkscape-font-specification:Helvetica;writing-mode:lr-tb;fill:#4d4d4d;fill-opacity:1;fill-rule:nonzero;stroke:none"
       id="text827"><tspan
         x="0 5.098834 11.326295 17.553757 23.332968 29.560429"
         y="0"
         sodipodi:role="line"
         id="tspan825">AGGCGA</tspan></text><text
       xml:space="preserve"
       transform="matrix(0.70710678,0.70710678,0.70710678,-0.70710678,44.81,16.72)"
       style="font-variant:normal;font-weight:normal;font-size:8.00445px;font-family:Helvetica;-inkscape-font-specification:Helvetica;writing-mode:lr-tb;fill:#4d4d4d;fill-opacity:1;fill-rule:nonzero;stroke:none"
       id="text831"><tspan
         x="0 5.098834 11.326295 17.553757 23.332968 29.560429"
         y="0"
         sodipodi:role="line"
         id="tspan829">AGGCGG</tspan></text><text
       xml:space="preserve"
       transform="matrix(0.70710678,0.70710678,0.70710678,-0.70710678,65.51,20.28)"
       style="font-variant:normal;font-weight:normal;font-size:8.00445px;font-family:Helvetica;-inkscape-font-specification:Helvetica;writing-mode:lr-tb;fill:#4d4d4d;fill-opacity:1;fill-rule:nonzero;stroke:none"
       id="text835"><tspan
         x="0 4.3784337 8.3086176 13.407452 19.186665 25.414125"
         y="0"
         sodipodi:role="line"
         id="tspan833">ATACGA</tspan></text><text
       xml:space="preserve"
       transform="matrix(0.70710678,0.70710678,0.70710678,-0.70710678,82.02,19.65)"
       style="font-variant:normal;font-weight:normal;font-size:8.00445px;font-family:Helvetica;-inkscape-font-specification:Helvetica;writing-mode:lr-tb;fill:#4d4d4d;fill-opacity:1;fill-rule:nonzero;stroke:none"
       id="text839"><tspan
         x="0 4.3784337 8.3086176 13.407452 19.186665 25.414125"
         y="0"
         sodipodi:role="line"
         id="tspan837">ATACGG</tspan></text><text
       xml:space="preserve"
       transform="matrix(0.70710678,0.70710678,0.70710678,-0.70710678,99.62,20.11)"
       style="font-variant:normal;font-weight:normal;font-size:8.00445px;font-family:Helvetica;-inkscape-font-specification:Helvetica;writing-mode:lr-tb;fill:#4d4d4d;fill-opacity:1;fill-rule:nonzero;stroke:none"
       id="text843"><tspan
         x="0 5.779212 12.006673 17.34564 21.724073 25.654259"
         y="0"
         sodipodi:role="line"
         id="tspan841">CGAATA</tspan></text><text
       xml:space="preserve"
       transform="matrix(0.70710678,0.70710678,0.70710678,-0.70710678,114.01,17.35)"
       style="font-variant:normal;font-weight:normal;font-size:8.00445px;font-family:Helvetica;-inkscape-font-specification:Helvetica;writing-mode:lr-tb;fill:#4d4d4d;fill-opacity:1;fill-rule:nonzero;stroke:none"
       id="text847"><tspan
         x="0 5.779212 12.006673 17.105507 22.88472 28.663931"
         y="0"
         sodipodi:role="line"
         id="tspan845">CGACCG</tspan></text><text
       xml:space="preserve"
       transform="matrix(0.70710678,0.70710678,0.70710678,-0.70710678,131.46,17.66)"
       style="font-variant:normal;font-weight:normal;font-size:8.00445px;font-family:Helvetica;-inkscape-font-specification:Helvetica;writing-mode:lr-tb;fill:#4d4d4d;fill-opacity:1;fill-rule:nonzero;stroke:none"
       id="text851"><tspan
         x="0 5.779212 12.006673 17.105507 22.88472 29.112181"
         y="0"
         sodipodi:role="line"
         id="tspan849">CGACGA</tspan></text><text
       xml:space="preserve"
       transform="matrix(0.70710678,0.70710678,0.70710678,-0.70710678,147.98,17.04)"
       style="font-variant:normal;font-weight:normal;font-size:8.00445px;font-family:Helvetica;-inkscape-font-specification:Helvetica;writing-mode:lr-tb;fill:#4d4d4d;fill-opacity:1;fill-rule:nonzero;stroke:none"
       id="text855"><tspan
         x="0 5.779212 12.006673 17.105507 22.88472 29.112181"
         y="0"
         sodipodi:role="line"
         id="tspan853">CGACGG</tspan></text><text
       xml:space="preserve"
       transform="matrix(0.70710678,0.70710678,0.70710678,-0.70710678,166.06,17.98)"
       style="font-variant:normal;font-weight:normal;font-size:8.00445px;font-family:Helvetica;-inkscape-font-specification:Helvetica;writing-mode:lr-tb;fill:#4d4d4d;fill-opacity:1;fill-rule:nonzero;stroke:none"
       id="text859"><tspan
         x="0 5.779212 12.006673 17.105507 22.88472 27.775436"
         y="0"
         sodipodi:role="line"
         id="tspan857">CGACTG</tspan></text><text
       xml:space="preserve"
       transform="matrix(0.70710678,0.70710678,0.70710678,-0.70710678,183.04,17.82)"
       style="font-variant:normal;font-weight:normal;font-size:8.00445px;font-family:Helvetica;-inkscape-font-specification:Helvetica;writing-mode:lr-tb;fill:#4d4d4d;fill-opacity:1;fill-rule:nonzero;stroke:none"
       id="text863"><tspan
         x="0 5.779212 10.66993 16.449142 22.228354 28.007566"
         y="0"
         sodipodi:role="line"
         id="tspan861">CTCCCG</tspan></text><text
       xml:space="preserve"
       transform="matrix(0.70710678,0.70710678,0.70710678,-0.70710678,199.86,17.5)"
       style="font-variant:normal;font-weight:normal;font-size:8.00445px;font-family:Helvetica;-inkscape-font-specification:Helvetica;writing-mode:lr-tb;fill:#4d4d4d;fill-opacity:1;fill-rule:nonzero;stroke:none"
       id="text867"><tspan
         x="0 5.779212 10.66993 16.897392 22.676603 28.455816"
         y="0"
         sodipodi:role="line"
         id="tspan865">CTGCCG</tspan></text><text
       xml:space="preserve"
       transform="matrix(0.70710678,0.70710678,0.70710678,-0.70710678,217.32,17.81)"
       style="font-variant:normal;font-weight:normal;font-size:8.00445px;font-family:Helvetica;-inkscape-font-specification:Helvetica;writing-mode:lr-tb;fill:#4d4d4d;fill-opacity:1;fill-rule:nonzero;stroke:none"
       id="text871"><tspan
         x="0 5.779212 10.66993 16.897392 22.676603 28.904064"
         y="0"
         sodipodi:role="line"
         id="tspan869">CTGCGA</tspan></text><text
       xml:space="preserve"
       transform="matrix(0.70710678,0.70710678,0.70710678,-0.70710678,234.14,17.49)"
       style="font-variant:normal;font-weight:normal;font-size:8.00445px;font-family:Helvetica;-inkscape-font-specification:Helvetica;writing-mode:lr-tb;fill:#4d4d4d;fill-opacity:1;fill-rule:nonzero;stroke:none"
       id="text875"><tspan
         x="0 6.2274613 11.118179 17.34564 23.124853 29.352314"
         y="0"
         sodipodi:role="line"
         id="tspan873">GTGCGA</tspan></text><text
       xml:space="preserve"
       transform="matrix(0.70710678,0.70710678,0.70710678,-0.70710678,261.65,27.86)"
       style="font-variant:normal;font-weight:normal;font-size:8.00445px;font-family:Helvetica;-inkscape-font-specification:Helvetica;writing-mode:lr-tb;fill:#4d4d4d;fill-opacity:1;fill-rule:nonzero;stroke:none"
       id="text879"><tspan
         x="0 6.2274613 8.4526978 12.903172 17.353645"
         y="0"
         sodipodi:role="line"
         id="tspan877">Other</tspan></text></g><g
     id="g901"
     transform="matrix(0.35277776,0,0,-0.35277776,0.45136527,45.533574)"><text
       xml:space="preserve"
       transform="matrix(0,1,1,0,11.72,66.65)"
       style="font-variant:normal;font-weight:normal;font-size:8px;font-family:Helvetica;-inkscape-font-specification:Helvetica;writing-mode:lr-tb;fill:#000000;fill-opacity:1;fill-rule:nonzero;stroke:none"
       id="text905"><tspan
         x="0 6.664 12.44 18.216 23.552 25.775999 27.552 31.76 35.560001 40.007999"
         y="0"
         sodipodi:role="line"
         id="tspan903">mRNA level</tspan></text><text
       xml:space="preserve"
       transform="matrix(0,1,1,0,20.36,58.8)"
       style="font-variant:normal;font-weight:normal;font-size:8px;font-family:Helvetica;-inkscape-font-specification:Helvetica;writing-mode:lr-tb;fill:#000000;fill-opacity:1;fill-rule:nonzero;stroke:none"
       id="text909"><tspan
         x="0 2.664 4.4400001 8.8879995 13.336 17.784 20.007999 22.232 26.68 29.344 33.472 35.695999 37.919998 42.368 46.816002 48.591999 50.816002 54.816002"
         y="0"
         sodipodi:role="line"
         id="tspan907">(log2, arb. units)</tspan></text></g></svg>
